<svg xmlns="http://www.w3.org/2000/svg" width="440" height="956" viewBox="0 0 440 956">
  <defs><linearGradient id="g" x1="0" y1="0" x2="1" y2="1"><stop stop-color="#17214B"/><stop offset=".52" stop-color="#433A88"/><stop offset="1" stop-color="#146E78"/></linearGradient></defs>
  <rect width="440" height="956" fill="url(#g)"/>
  <circle cx="390" cy="75" r="165" fill="#8B5CF6" opacity=".18"/><circle cx="25" cy="900" r="155" fill="#20C4B5" opacity=".14"/>
  <g transform="translate(144 320)" opacity=".94"><path d="M12 0h128v35L99 96v45l76 79c14 16 4 41-18 41H-5c-21 0-32-25-17-41l75-79V96L12 35z" fill="none" stroke="#F7FCFF" stroke-width="15" stroke-linejoin="round"/><path d="M15 192c41-21 82 22 122-2l27 31c7 9 1 23-10 23H-2c-12 0-18-14-11-23z" fill="#7DE0D5"/></g>
  <text x="220" y="635" text-anchor="middle" fill="#F6FBFF" font-family="-apple-system,BlinkMacSystemFont,Arial" font-size="30" font-weight="700">Ваше здоровье</text><text x="220" y="675" text-anchor="middle" fill="#F6FBFF" font-family="-apple-system,BlinkMacSystemFont,Arial" font-size="30" font-weight="700">под контролем</text>
  <text x="220" y="915" text-anchor="middle" fill="#A9D9C7" font-family="-apple-system,BlinkMacSystemFont,Arial" font-size="12" font-weight="700" letter-spacing="2">LAB HEALTH</text>
</svg>
